<!-- Keep this as a sprite file and reference with <use href="icons/icons.svg#id"> -->
<svg xmlns="http://www.w3.org/2000/svg">
  <!-- Home (filled) -->
  <symbol id="home" viewBox="0 0 24 24" fill="currentColor">
	<path stroke="none" d="M0 0h24v24H0z" fill="none"/>
	<path d="M12.707 2.293l9 9c.63 .63 .184 1.707 -.707 1.707h-1v6a3 3 0 0 1 -3 3h-1v-7a3 3 0 0 0 -2.824 -2.995l-.176 -.005h-2a3 3 0 0 0 -3 3v7h-1a3 3 0 0 1 -3 -3v-6h-1c-.89 0 -1.337 -1.077 -.707 -1.707l9 -9a1 1 0 0 1 1.414 0m.293 11.707a1 1 0 0 1 1 1v7h-4v-7a1 1 0 0 1 .883 -.993l.117 -.007z"/>
  </symbol>

  <!-- Sparkles (filled via currentColor; stroke none) -->
  <symbol id="sparkles" viewBox="0 0 24 24" fill="currentColor">
	<path stroke="none" d="M0 0h24v24H0z" fill="none"/>
	<path d="M16 18a2 2 0 0 1 2 2a2 2 0 0 1 2 -2a2 2 0 0 1 -2 -2a2 2 0 0 1 -2 2zm0 -12a2 2 0 0 1 2 2a2 2 0 0 1 2 -2a2 2 0 0 1 -2 -2a2 2 0 0 1 -2 2zm-7 12a6 6 0 0 1 6 -6a6 6 0 0 1 -6 -6a6 6 0 0 1 -6 6a6 6 0 0 1 6 6z"/>
  </symbol>

  <!-- Moon (outline) -->
  <symbol id="moon" viewBox="0 0 24 24" fill="none" stroke="currentColor"
		  stroke-width="2" stroke-linecap="round" stroke-linejoin="round">
	<path stroke="none" d="M0 0h24v24H0z" fill="none"/>
	<path d="M12 3c.132 0 .263 0 .393 0a7.5 7.5 0 0 0 7.92 12.446a9 9 0 1 1 -8.313 -12.454z"/>
  </symbol>

  <!-- Sun (filled) -->
  <symbol id="sun" viewBox="0 0 24 24" fill="currentColor">
	<path stroke="none" d="M0 0h24v24H0z" fill="none"/>
	<path d="M12 19a1 1 0 0 1 .993 .883l.007 .117v1a1 1 0 0 1 -1.993 .117l-.007 -.117v-1a1 1 0 0 1 1 -1z"/>
	<path d="M18.313 16.91l.094 .083l.7 .7a1 1 0 0 1 -1.32 1.497l-.094 -.083l-.7 -.7a1 1 0 0 1 1.218 -1.567l.102 .07z"/>
	<path d="M7.007 16.993a1 1 0 0 1 .083 1.32l-.083 .094l-.7 .7a1 1 0 0 1 -1.497 -1.32l.083 -.094l.7 -.7a1 1 0 0 1 1.414 0z"/>
	<path d="M4 11a1 1 0 0 1 .117 1.993l-.117 .007h-1a1 1 0 0 1 -.117 -1.993l.117 -.007h1z"/>
	<path d="M21 11a1 1 0 0 1 .117 1.993l-.117 .007h-1a1 1 0 0 1 -.117 -1.993l.117 -.007h1z"/>
	<path d="M6.213 4.81l.094 .083l.7 .7a1 1 0 0 1 -1.32 1.497l-.094 -.083l-.7 -.7a1 1 0 0 1 1.217 -1.567l.102 .07z"/>
	<path d="M19.107 4.893a1 1 0 0 1 .083 1.32l-.083 .094l-.7 .7a1 1 0 0 1 -1.497 -1.32l.083 -.094l.7 -.7a1 1 0 0 1 1.414 0z"/>
	<path d="M12 2a1 1 0 0 1 .993 .883l.007 .117v1a1 1 0 0 1 -1.993 .117l-.007 -.117v-1a1 1 0 0 1 1 -1z"/>
	<path d="M12 7a5 5 0 1 1 -4.995 5.217l-.005 -.217l.005 -.217a5 5 0 0 1 4.995 -4.783z"/>
  </symbol>

	<!-- Arrow Badge Left (collapse) -->
  <symbol id="arrow-badge-left" viewBox="0 0 24 24" fill="currentColor">
	<path stroke="none" d="M0 0h24v24H0z" fill="none"/>
	<path d="M17 6h-6a1 1 0 0 0 -.78 .375l-4 5a1 1 0 0 0 0 1.25l4 5a1 1 0 0 0 .78 .375h6l.112 -.006a1 1 0 0 0 .669 -1.619l-3.501 -4.375l3.5 -4.375a1 1 0 0 0 -.78 -1.625z" />
  </symbol>

  <!-- Arrow Badge Right (expand) -->
  <symbol id="arrow-badge-right" viewBox="0 0 24 24" fill="currentColor">
	<path stroke="none" d="M0 0h24v24H0z" fill="none"/>
	<path d="M7 6l-.112 .006a1 1 0 0 0 -.669 1.619l3.501 4.375l-3.5 4.375a1 1 0 0 0 .78 1.625h6a1 1 0 0 0 .78 -.375l4 -5a1 1 0 0 0 0 -1.25l-4 -5a1 1 0 0 0 -.78 -.375h-6z" />
  </symbol>

  <!-- More / Info icon -->
  <symbol id="arrow-up-right" viewBox="0 0 24 24" stroke="currentColor" stroke-width="2" stroke-linecap="round" stroke-linejoin="round" fill="none">
    <path stroke="none" d="M0 0h24v24H0z" fill="none"/>
    <path d="M17 7l-10 10"/>
    <path d="M8 7h9v9"/>
  </symbol>

  <!-- Close / X icon -->
  <symbol id="x" viewBox="0 0 24 24" stroke="currentColor" stroke-width="2" stroke-linecap="round" stroke-linejoin="round" fill="none">
    <path stroke="none" d="M0 0h24v24H0z" fill="none"/>
    <path d="M18 6l-12 12"/>
    <path d="M6 6l12 12"/>
  </symbol>

  <!-- Filter icon -->
  <symbol id="filter" viewBox="0 0 24 24" stroke="currentColor" stroke-width="2" stroke-linecap="round" stroke-linejoin="round" fill="none">
    <path stroke="none" d="M0 0h24v24H0z" fill="none"/>
    <path d="M4 6h16"/>
    <path d="M6 12h12"/>
    <path d="M9 18h6"/>
  </symbol>
</svg>
