<svg version="1.1" id="Shield_copy_2" xmlns="http://www.w3.org/2000/svg" viewBox="0 0 3600 3600">
<defs>
  <linearGradient id="grayGrad" x1="600" y1="700" x2="2800" y2="3600" gradientUnits="userSpaceOnUse">
    <stop offset="0%" stop-color="#8A9096"/>
    <stop offset="45%" stop-color="#43484D"/>
    <stop offset="100%" stop-color="#181B20"/>
  </linearGradient>

  <linearGradient id="redGrad" x1="650" y1="100" x2="3000" y2="2800" gradientUnits="userSpaceOnUse">
    <stop offset="0%" stop-color="#FF2F58"/>
    <stop offset="42%" stop-color="#C91137"/>
    <stop offset="100%" stop-color="#780819"/>
  </linearGradient>

  <filter id="dropShadow" x="-20%" y="-20%" width="140%" height="140%">
    <feDropShadow dx="0" dy="34" stdDeviation="28" flood-color="#000000" flood-opacity="0.45"/>
  </filter>
</defs>

<g filter="url(#dropShadow)">
<path fill="url(#grayGrad)" d="M1800.21,3599.59l-598.56-474.72l-512.48-550.46L533.5,1884.54V1872c0-55.69,11.5-117.53,34.19-183.8
	c19.87-58.03,47.79-118.24,82.98-178.96c68.4-118.01,158.86-227.5,248.2-300.4c97.79-79.8,208.62-170.25,351.22-237.55
	c77.03-36.36,156.26-63.02,242.21-81.51c94.69-20.37,194.69-30.28,305.7-30.28c136.24,0,265.56,22.21,384.38,66.01
	c95.9,35.35,184.97,84.69,264.72,146.65c135.23,105.06,102.22,502.2,108.9,513.84l-99.19-179.34
	c-0.48-0.82-49.67-82.75-155.55-162.8c-61.21-46.28-129.47-83.12-202.86-109.48c-92.14-33.1-193.21-49.88-300.4-49.88
	c-94.91,0-179.43,8.26-258.38,25.24c-68.92,14.83-132.22,36.1-193.5,65.02c-117.7,55.55-212.92,133.25-305,208.39
	c-68.1,55.57-141.29,144.89-195.79,238.91c-27.46,47.38-49.86,95.45-64.77,139.01c-12.72,37.17-20.16,71.38-21.74,99.8
	l136.45,604.71l459.49,493.54l445.44,353.28l445.44-353.28l346.6-372.5c0,0,88.88-53.66,199.69-164.48
	c154.33-154.33,219.95-290.25,219.95-290.25l-100.74,442.61l-512.4,550.35L1800.21,3599.59z"/>
<path fill="url(#redGrad)" d="M1799.98,2737.5c-136.23,0-265.42-21.38-383.97-63.53c-95.87-34.09-184.83-81.71-264.42-141.54
	c-135.41-101.79-101.17-505.23-107.85-516.54l97.16,186.98c0,0-0.13-0.23-0.4-0.68c0.48,0.79,49.09,79.5,154.5,156.47
	c61.1,44.62,129.37,80.15,202.93,105.6c92.5,32.01,194.13,48.24,302.05,48.24c93.25,0,182.99-9.39,266.73-27.91
	c72.47-16.03,142.45-39.35,208-69.32c128.43-58.72,220.56-133.98,278.69-185.48c84.8-75.14,160.43-167.31,218.7-266.55
	c51.23-87.25,88.79-180.04,105.77-261.25l0.5-2.28l52.96-229.47c7.96-54.85,73.21-503.73,108.73-735.86
	c-119.36-25.45-241.95-57.64-365.78-96.09c-135.72-42.14-273.99-92.09-410.97-148.46c-217.31-89.43-377.64-172.38-463.32-219.55
	c-85.68,47.16-246.01,130.11-463.32,219.55c-136.97,56.37-275.24,106.32-410.97,148.46c-123.91,38.47-246.6,70.69-366.05,96.15
	c16.41,109.77,39.55,270.44,60.72,417.39c12.31,85.46,13.93,85.64,22.94,147.38c0,0-58.86,95.77-83.36,152.56
	c-74.87,173.51-64.64,273.26-64.64,273.26s-55.38-261.42-70.16-362.61c-30.46-208.65-91.61-623.77-104.14-698.93L302.8,554.14
	l109.07-19.82c143.9-26.16,294.33-63.47,447.11-110.91c129.35-40.16,261.25-87.81,392.05-141.64
	c214.39-88.23,394.72-180.68,492-237.78l56.95-33.43l56.95,33.43c97.28,57.1,277.61,149.55,492,237.78
	c130.8,53.83,262.71,101.48,392.05,141.64c152.78,47.43,303.21,84.75,447.12,110.91l109.04,19.82l-18.18,109.32
	c-24.74,148.77-124.64,836.77-125.64,843.71l-0.67,4.6l-54.79,237.44c-22.25,105.67-67.78,219.04-131.73,327.96
	c-33.93,57.79-72.71,113.65-115.24,166.03c-45.41,55.92-95.3,108.07-148.28,155.01c-68.91,61.06-178.55,150.47-334.33,221.7
	c-79.94,36.55-165.05,64.94-252.97,84.38C2015.63,2726.33,1909.55,2737.5,1799.98,2737.5z"/>
</g>
</svg>